<svg xmlns="http://www.w3.org/2000/svg" width="600" height="400"><rect width="600" height="400" x="0" y="0" fill="#FFFFFF" id="backgorund"/><g id="viz"><g transform="translate(0,0)"><g transform="translate(50,20)"><g class="bars"><rect id="undefined - sales" x="219.37275926171827" y="290.7692307692308" height="69.23076923076923" width="50.13203757801089" fill="#ff7f0e"/><rect id="undefined - profit" x="270.4952031602709" y="332.3076923076923" height="27.69230769230768" width="50.13203757801089" fill="#1f77b4"/><rect id="undefined - sales" x="112.16687690877708" y="13.846153846153836" height="346.1538461538462" width="50.13203757801089" fill="#ff7f0e"/><rect id="undefined - profit" x="163.28932080732972" y="249.23076923076923" height="110.76923076923077" width="50.13203757801089" fill="#1f77b4"/><rect id="undefined - sales" x="433.7845239676006" y="152.30769230769232" height="207.69230769230768" width="50.13203757801089" fill="#ff7f0e"/><rect id="undefined - profit" x="484.90696786615325" y="276.9230769230769" height="83.0769230769231" width="50.13203757801089" fill="#1f77b4"/><rect id="undefined - sales" x="326.57864161465943" y="83.07692307692307" height="276.9230769230769" width="50.13203757801089" fill="#ff7f0e"/><rect id="undefined - profit" x="377.7010855132121" y="290.7692307692308" height="69.23076923076923" width="50.13203757801089" fill="#1f77b4"/><rect id="undefined - sales" x="4.96099455583591" y="221.53846153846155" height="138.46153846153845" width="50.13203757801089" fill="#ff7f0e"/><rect id="undefined - profit" x="56.083438454388556" y="318.46153846153845" height="41.53846153846155" width="50.13203757801089" fill="#1f77b4"/></g><g id="xAxis" transform="translate(0,360)" fill="none" font-size="10" font-family="sans-serif" text-anchor="middle"><path class="domain" stroke="currentColor" d="M0,0H540"/><g class="tick" opacity="1" transform="translate(55.58823529411767,0)"><line stroke="currentColor" y2="6"/><text fill="currentColor" y="9" dy="0.71em">central</text></g><g class="tick" opacity="1" transform="translate(162.79411764705884,0)"><line stroke="currentColor" y2="6"/><text fill="currentColor" y="9" dy="0.71em">east</text></g><g class="tick" opacity="1" transform="translate(270,0)"><line stroke="currentColor" y2="6"/><text fill="currentColor" y="9" dy="0.71em">north</text></g><g class="tick" opacity="1" transform="translate(377.2058823529412,0)"><line stroke="currentColor" y2="6"/><text fill="currentColor" y="9" dy="0.71em">south</text></g><g class="tick" opacity="1" transform="translate(484.4117647058824,0)"><line stroke="currentColor" y2="6"/><text fill="currentColor" y="9" dy="0.71em">west</text></g></g><g id="yAxis" fill="none" font-size="10" font-family="sans-serif" text-anchor="end"><path class="domain" stroke="currentColor" d="M0,360V0"/><g class="tick" opacity="1" transform="translate(0,360)"><line stroke="currentColor" x2="-6"/><text fill="currentColor" x="-9" dy="0.32em">0</text></g><g class="tick" opacity="1" transform="translate(0,332.3076923076923)"><line stroke="currentColor" x2="-6"/><text fill="currentColor" x="-9" dy="0.32em">2</text></g><g class="tick" opacity="1" transform="translate(0,304.6153846153846)"><line stroke="currentColor" x2="-6"/><text fill="currentColor" x="-9" dy="0.32em">4</text></g><g class="tick" opacity="1" transform="translate(0,276.9230769230769)"><line stroke="currentColor" x2="-6"/><text fill="currentColor" x="-9" dy="0.32em">6</text></g><g class="tick" opacity="1" transform="translate(0,249.23076923076923)"><line stroke="currentColor" x2="-6"/><text fill="currentColor" x="-9" dy="0.32em">8</text></g><g class="tick" opacity="1" transform="translate(0,221.53846153846155)"><line stroke="currentColor" x2="-6"/><text fill="currentColor" x="-9" dy="0.32em">10</text></g><g class="tick" opacity="1" transform="translate(0,193.84615384615384)"><line stroke="currentColor" x2="-6"/><text fill="currentColor" x="-9" dy="0.32em">12</text></g><g class="tick" opacity="1" transform="translate(0,166.15384615384616)"><line stroke="currentColor" x2="-6"/><text fill="currentColor" x="-9" dy="0.32em">14</text></g><g class="tick" opacity="1" transform="translate(0,138.46153846153845)"><line stroke="currentColor" x2="-6"/><text fill="currentColor" x="-9" dy="0.32em">16</text></g><g class="tick" opacity="1" transform="translate(0,110.76923076923077)"><line stroke="currentColor" x2="-6"/><text fill="currentColor" x="-9" dy="0.32em">18</text></g><g class="tick" opacity="1" transform="translate(0,83.07692307692307)"><line stroke="currentColor" x2="-6"/><text fill="currentColor" x="-9" dy="0.32em">20</text></g><g class="tick" opacity="1" transform="translate(0,55.38461538461539)"><line stroke="currentColor" x2="-6"/><text fill="currentColor" x="-9" dy="0.32em">22</text></g><g class="tick" opacity="1" transform="translate(0,27.692307692307672)"><line stroke="currentColor" x2="-6"/><text fill="currentColor" x="-9" dy="0.32em">24</text></g><g class="tick" opacity="1" transform="translate(0,0)"><line stroke="currentColor" x2="-6"/><text fill="currentColor" x="-9" dy="0.32em">26</text></g></g><text y="356" x="540" text-anchor="end" style="font-family: Arial, sans-serif; font-size: 12px; fill: rgb(123, 123, 123); font-weight: bold;">Sets</text><text y="0" x="4" dominant-baseline="hanging" text-anchor="start" style="font-family: Arial, sans-serif; font-size: 12px; fill: rgb(123, 123, 123); font-weight: bold;">Value</text></g><text x="4" y="4" style="font-family: Arial, sans-serif; font-size: 12px; fill: black; font-weight: bold; dominant-baseline: hanging;"/></g><g id="grid"><rect x="0" y="0" width="600" height="400" fill="none" stroke="#ccc"/></g></g></svg>